# File created by Blade
# Date/Time:  Wed Jan 21 14:55:15 2015
# Frame Rate: 120.000 fps
#------------------------------------------------------
:FULLY-SPECIFIED
:DEGREES
902
root 22.710608 35.443741 -19.874415 -175.272833 19.878214 -179.948989
Spine -9.703459 4.596230 4.850262
Head 8.454931 5.374301 -1.902727
LeftShoulder -16.985784 -30.434277 17.816959
LeftArm -3.007139 -1.401502 -13.885416
LeftForeArm 0.258528 -0.000000 -2.422418
LeftHand -8.321102 -0.000000 1.316789
LeftHandThumb1 -26.253704 0.000000 33.147579
RightShoulder -10.679230 -5.156313 -9.559924
RightArm 1.065792 44.242001 22.847962
RightForeArm -32.423456 -0.000000 15.233968
RightHand -15.528824 -0.000000 -5.864357
RightHandThumb1 -24.326973 -0.000000 -32.862282
LeftUpLeg -0.752750 26.603552 3.108068
LeftLeg -0.645953 -0.000000 0.000000
LeftFoot -23.329236 31.621030 -12.969933
LeftToeBase 15.993338 -0.000000 -0.000000
RightUpLeg -19.560353 -30.399636 3.610735
RightLeg 16.595069 -0.000000 -0.000000
RightFoot -25.760830 -40.764836 17.384881
RightToeBase 4.970962 -0.000000 -0.000000
903
root 22.593930 35.454242 -19.878574 -175.551354 19.594680 -180.171240
Spine -9.538826 4.920797 4.305886
Head 8.284583 5.043972 -1.537866
LeftShoulder -16.758814 -30.434791 17.805011
LeftArm -2.711177 -1.233416 -13.889611
LeftForeArm 0.462449 -0.000000 -2.278230
LeftHand -8.251346 -0.000000 1.391765
LeftHandThumb1 -26.253704 0.000000 33.147579
RightShoulder -10.850501 -5.271528 -9.198496
RightArm 1.711072 44.279749 23.101266
RightForeArm -32.535188 0.000000 15.175234
RightHand -15.661299 -0.000000 -5.786579
RightHandThumb1 -24.326973 -0.000000 -32.862282
LeftUpLeg -0.636767 26.206589 2.824097
LeftLeg -0.653901 -0.000000 0.000000
LeftFoot -23.083367 31.692388 -13.033685
LeftToeBase 16.057517 -0.000000 -0.000000
RightUpLeg -19.362753 -30.449463 3.133601
RightLeg 16.618763 -0.000000 -0.000000
RightFoot -25.804722 -40.424083 17.167367
RightToeBase 5.064908 -0.000000 -0.000000
904
root 22.475988 35.467593 -19.881053 -175.776843 19.327720 -180.366633
Spine -9.420004 5.232177 3.802819
Head 8.148891 4.765335 -1.204136
LeftShoulder -16.563886 -30.419768 17.877963
LeftArm -2.470666 -0.931274 -13.989960
LeftForeArm 0.559956 -0.000000 -2.150812
LeftHand -8.137513 -0.000000 1.341159
LeftHandThumb1 -26.253704 0.000000 33.147579
RightShoulder -11.037467 -5.594601 -8.855224
RightArm 2.544709 44.365767 23.486822
RightForeArm -32.483652 -0.000000 14.960961
RightHand -15.519844 -0.000000 -5.766892
RightHandThumb1 -24.326973 -0.000000 -32.862282
LeftUpLeg -0.543815 25.701501 2.563161
LeftLeg -0.649812 -0.000000 0.000000
LeftFoot -22.876148 31.600766 -13.296495
LeftToeBase 16.150728 -0.000000 -0.000000
RightUpLeg -19.168483 -30.429084 2.696480
RightLeg 16.558719 -0.000000 -0.000000
RightFoot -25.822543 -40.064196 16.979264
RightToeBase 5.235224 -0.000000 -0.000000
905
root 22.358513 35.481353 -19.880127 -175.927083 19.071011 -180.493738
Spine -9.372887 5.550677 3.397446
Head 8.093985 4.431227 -0.949805
LeftShoulder -16.357092 -30.140425 17.862895
LeftArm -2.099703 -0.914592 -14.113296
LeftForeArm 0.752802 -0.000000 -2.134799
LeftHand -8.002906 0.000000 1.195012
LeftHandThumb1 -26.253704 0.000000 33.147579
RightShoulder -11.134060 -5.884615 -8.634228
RightArm 3.199608 44.475093 23.843069
RightForeArm -32.565582 -0.000000 14.757661
RightHand -15.245796 -0.000000 -5.647541
RightHandThumb1 -24.326973 -0.000000 -32.862282
LeftUpLeg -0.507815 24.982498 2.352556
LeftLeg -0.626230 -0.000000 0.000000
LeftFoot -22.700474 31.605109 -13.546767
LeftToeBase 16.349356 -0.000000 -0.000000
RightUpLeg -19.004782 -30.361538 2.350263
RightLeg 16.444924 -0.000000 -0.000000
RightFoot -25.926902 -39.747176 17.010277
RightToeBase 5.159185 -0.000000 -0.000000
906
root 22.239765 35.493970 -19.880746 -176.050250 18.782984 -180.579483
Spine -9.356067 5.831515 3.059353
Head 8.067119 4.156232 -0.703611
LeftShoulder -16.108875 -29.950743 17.881561
LeftArm -1.839513 -0.688475 -14.246657
LeftForeArm 0.733250 -0.000000 -2.143708
LeftHand -7.871559 -0.000000 1.048356
LeftHandThumb1 -26.253704 0.000000 33.147579
RightShoulder -11.190003 -6.176293 -8.442097
RightArm 3.809887 44.411501 24.098315
RightForeArm -32.540036 -0.000000 14.476244
RightHand -14.976852 0.000000 -5.525191
RightHandThumb1 -24.326973 -0.000000 -32.862282
LeftUpLeg -0.526262 24.255616 2.175706
LeftLeg -0.543270 -0.000000 0.000000
LeftFoot -22.573613 31.583884 -13.839971
LeftToeBase 16.517496 -0.000000 -0.000000
RightUpLeg -18.801878 -30.327733 2.050414
RightLeg 16.237457 -0.000000 -0.000000
RightFoot -26.005403 -39.521560 16.906370
RightToeBase 5.153700 -0.000000 -0.000000
907
root 22.121445 35.506998 -19.881872 -176.137802 18.494927 -180.609699
Spine -9.363480 6.069983 2.815379
Head 8.069157 3.935826 -0.491945
LeftShoulder -15.931918 -29.700454 17.881637
LeftArm -1.482723 -0.480382 -14.373011
LeftForeArm 0.764472 0.000000 -2.249349
LeftHand -7.708664 0.000000 0.808505
LeftHandThumb1 -26.253704 0.000000 33.147579
RightShoulder -11.241876 -6.475388 -8.270446
RightArm 4.514839 44.162131 24.305102
RightForeArm -32.431929 -0.000000 14.037411
RightHand -14.828074 -0.000000 -5.309488
RightHandThumb1 -24.326973 -0.000000 -32.862282
LeftUpLeg -0.587089 23.560838 2.041964
LeftLeg -0.421637 -0.000000 0.000000
LeftFoot -22.496918 31.539779 -14.197617
LeftToeBase 16.820807 -0.000000 -0.000000
RightUpLeg -18.593767 -30.253335 1.794434
RightLeg 16.025666 -0.000000 -0.000000
RightFoot -26.111459 -39.304061 16.862662
RightToeBase 5.159723 -0.000000 -0.000000
908
root 22.002587 35.520551 -19.885602 -176.204483 18.181627 -180.589327
Spine -9.388793 6.233048 2.672469
Head 8.104119 3.819923 -0.300428
LeftShoulder -15.838653 -29.331336 17.814624
LeftArm -0.957895 -0.344297 -14.465051
LeftForeArm 0.754597 -0.000000 -2.499457
LeftHand -7.600667 -0.000000 0.567492
LeftHandThumb1 -26.253704 0.000000 33.147579
RightShoulder -11.158728 -6.723348 -8.146148
RightArm 5.001000 43.787632 24.289926
RightForeArm -32.120327 -0.000000 13.530755
RightHand -14.421681 -0.000000 -5.105095
RightHandThumb1 -24.326973 -0.000000 -32.862282
LeftUpLeg -0.671378 22.902491 1.950095
LeftLeg -0.277354 -0.000000 0.000000
LeftFoot -22.407522 31.541738 -14.404584
LeftToeBase 17.495987 -0.000000 -0.000000
RightUpLeg -18.361318 -30.255664 1.608722
RightLeg 15.746582 -0.000000 -0.000000
RightFoot -26.298795 -39.097906 17.000633
RightToeBase 5.178229 -0.000000 -0.000000
909
root 21.880938 35.534808 -19.889713 -176.275244 17.876066 -180.564937
Spine -9.419973 6.425451 2.547274
Head 8.206615 3.587872 -0.201702
LeftShoulder -15.685518 -29.233728 17.776971
LeftArm -0.587711 -0.111076 -14.517933
LeftForeArm 1.027790 -0.000000 -2.723001
LeftHand -7.394540 -0.000000 0.239563
LeftHandThumb1 -26.253704 0.000000 33.147579
RightShoulder -11.197596 -6.965484 -8.041148
RightArm 5.756649 43.335899 24.407691
RightForeArm -31.943387 -0.000000 12.835023
RightHand -14.237661 0.000000 -5.057308
RightHandThumb1 -24.326973 -0.000000 -32.862282
LeftUpLeg -0.754474 22.334250 1.853307
LeftLeg -0.132002 -0.000000 0.000000
LeftFoot -22.279071 31.511585 -14.710414
LeftToeBase 17.425128 -0.000000 -0.000000
RightUpLeg -18.081865 -30.180965 1.394191
RightLeg 15.424020 -0.000000 -0.000000
RightFoot -26.454643 -38.983909 17.131607
RightToeBase 5.388813 -0.000000 -0.000000
910
root 21.755918 35.548281 -19.896559 -176.363406 17.498384 -180.501093
Spine -9.423355 6.512559 2.527827
Head 8.358709 3.450951 -0.157323
LeftShoulder -15.554549 -29.169230 17.722016
LeftArm -0.244808 0.309402 -14.595324
LeftForeArm 0.794809 -0.000000 -2.884980
LeftHand -7.486399 -0.000000 0.188473
LeftHandThumb1 -26.253704 0.000000 33.147579
RightShoulder -11.207125 -7.169799 -7.972799
RightArm 6.516177 43.025197 24.461209
RightForeArm -31.813353 -0.000000 12.071023
RightHand -13.998701 -0.000000 -4.821313
RightHandThumb1 -24.326973 -0.000000 -32.862282
LeftUpLeg -0.834082 21.764821 1.802054
LeftLeg 0.050417 -0.000000 -0.000000
LeftFoot -22.195853 31.498203 -14.845753
LeftToeBase 18.113764 -0.000000 -0.000000
RightUpLeg -17.733670 -30.152830 1.175458
RightLeg 15.057440 -0.000000 -0.000000
RightFoot -26.685285 -38.964403 17.379909
RightToeBase 5.245993 -0.000000 -0.000000
911
root 21.631417 35.562462 -19.907659 -176.463080 17.106037 -180.434753
Spine -9.430589 6.553819 2.534128
Head 8.541910 3.255860 -0.173549
LeftShoulder -15.453502 -29.228854 17.699758
LeftArm 0.032690 0.683228 -14.663478
LeftForeArm 0.759031 -0.000000 -3.003882
LeftHand -7.590185 -0.000000 0.123111
LeftHandThumb1 -26.253704 0.000000 33.147579
RightShoulder -11.087863 -7.195744 -7.987385
RightArm 6.940209 42.612238 24.331219
RightForeArm -31.621488 -0.000000 11.440425
RightHand -13.695419 -0.000000 -4.647452
RightHandThumb1 -24.326973 -0.000000 -32.862282
LeftUpLeg -0.891164 21.293267 1.739614
LeftLeg 0.172423 -0.000000 -0.000000
LeftFoot -22.067120 31.583187 -15.072972
LeftToeBase 18.576338 -0.000000 -0.000000
RightUpLeg -17.359007 -30.179982 0.954449
RightLeg 14.691144 -0.000000 -0.000000
RightFoot -26.992879 -38.881879 17.683888
RightToeBase 5.495233 -0.000000 -0.000000
912
root 21.502913 35.575887 -19.915318 -176.562578 16.633438 -180.357812
Spine -9.398893 6.536901 2.588327
Head 8.672865 3.123574 -0.221077
LeftShoulder -15.395833 -29.441652 17.696191
LeftArm 0.286396 1.090700 -14.743958
LeftForeArm 0.773252 -0.000000 -3.077310
LeftHand -7.547290 -0.000000 -0.040545
LeftHandThumb1 -26.253704 0.000000 33.147579
RightShoulder -11.071986 -7.013609 -8.036702
RightArm 7.373451 41.961314 24.127737
RightForeArm -31.267023 -0.000000 10.757675
RightHand -13.384765 0.000000 -4.487606
RightHandThumb1 -24.326973 -0.000000 -32.862282
LeftUpLeg -0.996084 20.912571 1.673579
LeftLeg 0.322761 -0.000000 -0.000000
LeftFoot -21.923988 31.704337 -15.053189
LeftToeBase 19.255714 -0.000000 -0.000000
RightUpLeg -16.972983 -30.292434 0.739560
RightLeg 14.326288 -0.000000 -0.000000
RightFoot -27.271505 -38.735963 17.886179
RightToeBase 5.811996 -0.000000 -0.000000
913
root 21.373785 35.589159 -19.928821 -176.689268 16.168059 -180.291404
Spine -9.389947 6.412760 2.672820
Head 8.959465 3.081965 -0.314256
LeftShoulder -15.342704 -29.507643 17.649996
LeftArm 0.482811 1.403790 -14.778513
LeftForeArm 0.710549 -0.000000 -3.093042
LeftHand -7.610470 -0.000000 -0.102600
LeftHandThumb1 -26.253704 0.000000 33.147579
RightShoulder -10.901338 -6.959613 -8.145075
RightArm 7.895670 41.961981 24.177390
RightForeArm -31.306592 0.000000 10.240789
RightHand -13.369842 -0.000000 -4.342174
RightHandThumb1 -24.326973 -0.000000 -32.862282
LeftUpLeg -1.027230 20.597835 1.600452
LeftLeg 0.392096 -0.000000 -0.000000
LeftFoot -21.751636 31.820576 -15.101174
LeftToeBase 19.735107 -0.000000 -0.000000
RightUpLeg -16.541132 -30.385820 0.486578
RightLeg 13.965575 -0.000000 -0.000000
RightFoot -27.589576 -38.586721 18.112935
RightToeBase 5.866077 -0.000000 -0.000000
914
root 21.243881 35.600558 -19.940780 -176.790868 15.635817 -180.243134
Spine -9.377800 6.335522 2.700776
Head 9.131127 2.889305 -0.351585
LeftShoulder -15.234465 -29.651635 17.589736
LeftArm 0.697870 1.667581 -14.826142
LeftForeArm 0.608717 -0.000000 -3.040559
LeftHand -7.546508 0.000000 -0.128586
LeftHandThumb1 -26.253704 0.000000 33.147579
RightShoulder -10.901150 -6.834499 -8.195467
RightArm 8.357976 41.868288 24.096969
RightForeArm -31.288551 -0.000000 9.728774
RightHand -13.203345 -0.000000 -3.935704
RightHandThumb1 -24.326973 -0.000000 -32.862282
LeftUpLeg -1.119966 20.298218 1.495368
LeftLeg 0.511434 -0.000000 -0.000000
LeftFoot -21.581036 31.852208 -15.010095
LeftToeBase 20.500867 -0.000000 -0.000000
RightUpLeg -16.151963 -30.559391 0.230023
RightLeg 13.642881 -0.000000 -0.000000
RightFoot -27.988006 -38.344236 18.383277
RightToeBase 6.327148 -0.000000 -0.000000
